# xmcd
#
# Track frame offsets:
#	150
#	16125
#	34325
#	49620
#	69600
#	90668
#	110031
#	127746
#	146829
#	163776
#	185332
#	206322
#	225725
#	245550
#	266895
#	286626
#	305396
#
# Disc length: 4360 seconds
#
# Revision: 2
# Processed by: cddbd v1.5.1PL0 Copyright (c) Steve Scherf et al.
# Submitted via: audiograbber 1.82.02
#
DISCID=ed110611
DTITLE=Русский размер - Лучшее
DYEAR=2003
DGENRE=pop
TTITLE0=Обними меня
TTITLE1=В городе весна feat БулановаТаня
TTITLE2=Ты не плачь о нем
TTITLE3=Лето
TTITLE4=Мегабайты снов
TTITLE5=До свидания
TTITLE6=Между небом и землей
TTITLE7=Звезда разлуки
TTITLE8=Весь этот мир
TTITLE9=Было и прошло
TTITLE10=Танцы
TTITLE11=Лети
TTITLE12=Весна
TTITLE13=Ангел дня
TTITLE14=Увидеть небо
TTITLE15=Меня колбасит
TTITLE16=Это не сон
EXTD=
EXTT0=
EXTT1=
EXTT2=
EXTT3=
EXTT4=
EXTT5=
EXTT6=
EXTT7=
EXTT8=
EXTT9=
EXTT10=
EXTT11=
EXTT12=
EXTT13=
EXTT14=
EXTT15=
EXTT16=
PLAYORDER=
